# xmcd CD database file
#
# Track frame offsets:
#	200
#	17675
#	27950
#	43775
#	47675
#	60950
#	77975
#	90725
#	105125
#	117500
#	131300
#	147762
#	160400
#	170750
#
# Disc length: 2523 seconds
#
# Revision: 2
# Processed by: cddbd v1.5.2PL0 Copyright (c) Steve Scherf et al.
# Submitted via: CDex 1.51
#
DISCID=af09d90e
DTITLE=Manfred Siebald and Kinder - Laß uns Freunde sein
DYEAR=1996
DGENRE=Liedermacher
TTITLE0=Laß uns Freunde sein
TTITLE1=Hereinspaziert
TTITLE2=Der Käfer Max
TTITLE3=Boa Constrictor
TTITLE4=Die Bäume rauschen im Wind
TTITLE5=Mit Hallo und Hauruck
TTITLE6=Stell dir mal vor
TTITLE7=Ballade vom harten Frühstücksei
TTITLE8=Wer hätte das gedacht?
TTITLE9=Da pfeif ich drauf
TTITLE10=Brummkreisel
TTITLE11=Immer sauber kann man gar nicht sein
TTITLE12=Lied vom verlorenen Groschen
TTITLE13=Es raunt der Hahn der Henne zu
EXTD=YEAR: 1996
EXTT0=
EXTT1=
EXTT2=
EXTT3=
EXTT4=
EXTT5=
EXTT6=
EXTT7=
EXTT8=
EXTT9=
EXTT10=
EXTT11=
EXTT12=
EXTT13=
PLAYORDER=
